<svg id="Capa_1" enable-background="new 0 0 512.001 512.001" height="512" viewBox="0 0 512.001 512.001" width="512" xmlns="http://www.w3.org/2000/svg"><g><g><path d="m507.928 183.839c-5.686-26.603-16.985-50.531-33.545-71.067l-.127-.156c-3.444-4.29-9.711-4.996-14.022-1.567-4.323 3.438-5.041 9.729-1.604 14.051l.142.173c14.615 18.126 24.573 39.237 29.598 62.746 5.071 23.729 4.827 48.742-.728 74.342-10.483 48.315-38.955 93.573-80.168 127.438-41.37 33.994-90.957 52.715-139.625 52.715-25.117 0-48.639-4.942-69.914-14.688-20.993-9.619-38.854-23.446-53.088-41.099-14.279-17.71-24.1-38.274-29.23-61.131h20.482c4.623 17.829 12.77 34.256 24.317 48.578 25.134 31.172 63.288 48.34 107.433 48.34 1.995 0 3.992-.047 5.991-.117.486.071.97.119 1.449.119.813 0 1.61-.105 2.38-.295 40.879-2.334 82.112-19.118 117.107-47.875 37.749-31.019 63.788-72.295 73.319-116.226.004-.017.007-.034.01-.051.008-.036.015-.072.022-.109 9.803-45.376.954-88.036-24.926-120.135-25.101-31.131-63.188-48.292-107.261-48.337-.044-.001-.088-.001-.132-.002-.013 0-.026 0-.04 0-44.049 0-89.126 17.106-126.927 48.167-37.749 31.019-63.788 72.295-73.32 116.226-.004.02-.008.04-.012.061-.006.03-.012.06-.018.09-3.839 17.764-4.807 35.107-3.026 51.567h-20.054c-1.76-18.135-.573-36.883 3.566-55.958 10.483-48.314 38.953-93.572 80.167-127.438 41.37-33.994 90.956-52.715 139.624-52.715 19.741 0 38.633 3.087 56.149 9.176 5.217 1.815 10.915-.946 12.729-6.163 1.813-5.217-.945-10.916-6.162-12.729-19.634-6.824-40.734-10.285-62.716-10.285-50.191 0-101.096 18.047-144.393 51h-124.375c-5.523 0-10 4.477-10 10s4.477 10 10 10h100.983c-36.341 34.839-61.489 78.535-71.551 124.912-4.437 20.447-5.791 40.608-4.093 60.199h-37.39c-5.523 0-10 4.477-10 10s4.477 10 10 10h40.231c.17.855.329 1.712.511 2.564 5.685 26.602 16.986 50.53 33.588 71.121 16.195 20.085 36.492 35.807 60.327 46.728 23.907 10.952 50.232 16.505 78.244 16.505 53.287 0 107.383-20.336 152.322-57.263 44.679-36.712 75.581-85.952 87.016-138.65 6.159-28.392 6.409-56.238.74-82.762zm-354.359 82.161h11.247c5.523 0 10-4.477 10-10s-4.477-10-10-10h-6.621c10.43-35 32.586-67.62 63.344-92.894 30.618-25.16 66.306-40.198 101.714-43.095l-1.492 6.876c-1.171 5.397 2.255 10.722 7.652 11.893.715.155 1.428.229 2.13.229 4.604 0 8.747-3.199 9.763-7.882l2.476-11.414c34.542 1.906 64.1 16.17 83.85 40.666 20.564 25.505 28.403 59.212 22.417 95.621h-11.247c-5.522 0-10 4.477-10 10s4.478 10 10 10h6.621c-10.43 35-32.585 67.62-63.344 92.894-28.427 23.359-61.223 37.992-94.108 42.287l1.317-6.068c1.171-5.397-2.255-10.722-7.651-11.893-5.398-1.175-10.724 2.254-11.894 7.652l-2.525 11.635c-37.706-.161-70.088-14.662-91.233-40.886-8.626-10.698-15.003-22.845-19.071-36.024h42.656c5.523 0 10-4.477 10-10s-4.477-10-10-10h-46.947c-1.595-12.624-1.303-25.918.946-39.597z"/><path d="m261.967 298.745c2.234 0 4.481-.745 6.343-2.274l39.849-32.744c1.74-1.43 2.946-3.405 3.424-5.606l20.063-92.471c1.171-5.397-2.255-10.722-7.652-11.893-5.395-1.172-10.722 2.255-11.893 7.652l-19.326 89.073-37.162 30.536c-4.267 3.506-4.884 9.808-1.377 14.075 1.976 2.406 4.842 3.652 7.731 3.652z"/><path d="m10 206.597h68.27c5.523 0 10-4.477 10-10s-4.477-10-10-10h-68.27c-5.523 0-10 4.477-10 10s4.477 10 10 10z"/><path d="m88.37 396.597h-52.053c-5.523 0-10 4.477-10 10s4.477 10 10 10h52.053c5.523 0 10-4.477 10-10s-4.477-10-10-10z"/><path d="m19.23 311.771c-3.441-8.261-15.587-7.971-18.638.455-1.445 3.992-.101 8.652 3.258 11.253 3.257 2.522 7.805 2.795 11.331.666 4.165-2.516 5.922-7.881 4.049-12.374z"/><path d="m426.17 93.821c2.093 5.025 8.022 7.501 13.06 5.41 5.037-2.09 7.49-8.023 5.41-13.06-2.079-5.033-8.029-7.498-13.06-5.41-5.045 2.094-7.478 8.015-5.41 13.06z"/></g></g></svg>